<svg width="583" height="209" fill="none" xmlns="http://www.w3.org/2000/svg"><path d="M23.617 98.36c-.64.04-1.11.12-1.41.24-.28.12-.47.35-.57.69-.1.34-.15.89-.15 1.65v11.88c0 .76.05 1.31.15 1.65.12.34.32.57.6.69.28.12.74.2 1.38.24v.6c-1.02-.06-2.6-.09-4.74-.09-2.3 0-4.07.03-5.31.09v-.6c.64-.04 1.1-.12 1.38-.24.3-.12.5-.35.6-.69.1-.34.15-.89.15-1.65v-5.7h-6.75v5.7c0 .76.05 1.31.15 1.65.12.34.32.57.6.69.28.12.74.2 1.38.24v.6c-1.22-.06-2.99-.09-5.31-.09-2.14 0-3.72.03-4.74.09v-.6c.64-.04 1.1-.12 1.38-.24.3-.12.5-.35.6-.69.1-.34.15-.89.15-1.65v-11.88c0-.76-.06-1.31-.18-1.65-.1-.34-.29-.57-.57-.69-.28-.12-.74-.2-1.38-.24v-.6c1.02.06 2.6.09 4.74.09 2.3 0 4.07-.03 5.31-.09v.6c-.64.04-1.11.12-1.41.24-.28.12-.47.35-.57.69-.1.34-.15.89-.15 1.65v5.58h6.75v-5.58c0-.76-.06-1.31-.18-1.65-.1-.34-.29-.57-.57-.69-.28-.12-.74-.2-1.38-.24v-.6c1.22.06 2.99.09 5.31.09 2.14 0 3.72-.03 4.74-.09v.6zm17.987 13.5c0 1.22.07 2.6.21 4.14-1.3-.06-3.49-.09-6.57-.09-4.4 0-7.7.03-9.9.09v-.6c.64-.04 1.1-.12 1.38-.24.3-.12.5-.35.6-.69.1-.34.15-.89.15-1.65v-11.88c0-.76-.06-1.31-.18-1.65-.1-.34-.29-.57-.57-.69-.28-.12-.74-.2-1.38-.24v-.6c2.2.06 5.5.09 9.9.09 2.8 0 4.79-.03 5.97-.09-.14 1.42-.21 2.7-.21 3.84 0 .78.03 1.4.09 1.86h-.69c-.4-1.78-1.04-3.06-1.92-3.84-.86-.78-1.96-1.17-3.3-1.17h-.39c-.56 0-.96.1-1.2.3-.22.2-.33.63-.33 1.29v6.48h.69c.96 0 1.72-.34 2.28-1.02.58-.7.95-1.48 1.11-2.34h.69c-.06.68-.09 1.48-.09 2.4v1.26c0 .98.06 2.2.18 3.66h-.69c-.14-.96-.51-1.76-1.11-2.4-.6-.64-1.39-.96-2.37-.96h-.69v6.6c0 .66.11 1.09.33 1.29.24.2.64.3 1.2.3h.69c1.4 0 2.56-.43 3.48-1.29.94-.88 1.62-2.32 2.04-4.32h.69c-.06.56-.09 1.28-.09 2.16zm12.364-13.5c-.64.04-1.11.12-1.41.24-.28.12-.47.35-.57.69-.1.34-.15.89-.15 1.65v12.48c0 .78.11 1.29.33 1.53.24.24.64.36 1.2.36h.69c1.28 0 2.42-.52 3.42-1.56s1.7-2.69 2.1-4.95h.69c-.06.66-.09 1.48-.09 2.46 0 1.4.07 2.98.21 4.74-1.3-.06-3.49-.09-6.57-.09-4.4 0-7.7.03-9.9.09v-.6c.64-.04 1.1-.12 1.38-.24.3-.12.5-.35.6-.69.1-.34.15-.89.15-1.65v-11.88c0-.76-.06-1.31-.18-1.65-.1-.34-.29-.57-.57-.69-.28-.12-.74-.2-1.38-.24v-.6c1.14.06 2.92.09 5.34.09 2.02 0 3.59-.03 4.71-.09v.6zm15.829 10.26v4.2c0 .76.06 1.31.18 1.65.12.34.34.57.66.69.34.12.87.2 1.59.24v.6c-1.34-.06-3.31-.09-5.91-.09-2 0-3.48.03-4.44.09v-.6c.64-.04 1.1-.12 1.38-.24.3-.12.5-.35.6-.69.1-.34.15-.89.15-1.65v-11.88c0-.76-.06-1.31-.18-1.65-.1-.34-.29-.57-.57-.69-.28-.12-.74-.2-1.38-.24v-.6c.96.06 2.38.09 4.26.09l3.84-.03c.46-.02.99-.03 1.59-.03 2.92 0 5.05.42 6.39 1.26 1.36.84 2.04 2.09 2.04 3.75 0 1.66-.72 3.05-2.16 4.17-1.42 1.1-3.83 1.65-7.23 1.65h-.81zm1.62-10.26c-.46 0-.81.07-1.05.21-.22.14-.37.39-.45.75-.08.36-.12.9-.12 1.62v7.08h.51c1.4 0 2.36-.43 2.88-1.29.54-.88.81-2.08.81-3.6 0-1.62-.2-2.82-.6-3.6-.38-.78-1.04-1.17-1.98-1.17zm31.486 15.12c.6 1.24 1.19 1.88 1.77 1.92v.6c-1.02-.06-2.49-.09-4.41-.09-2.42 0-4.2.03-5.34.09v-.6c.62-.04 1.08-.14 1.38-.3.3-.18.45-.47.45-.87 0-.36-.13-.81-.39-1.35l-1.47-3.42h-5.61c-.68 1.56-1.02 2.81-1.02 3.75 0 .8.24 1.36.72 1.68.48.3 1.17.47 2.07.51v.6c-1.5-.06-2.81-.09-3.93-.09-.94 0-1.71.03-2.31.09v-.6c.48-.08.92-.38 1.32-.9.42-.52.9-1.39 1.44-2.61l6.15-14.13c.44.04.77.06.99.06.22 0 .55-.02.99-.06l7.2 15.72zm-8.28-4.62l-2.55-5.88-2.55 5.88h5.1zm29.754-10.5c-.64.14-1.11.33-1.41.57-.28.22-.47.57-.57 1.05-.1.46-.15 1.18-.15 2.16V116c-.48-.04-.84-.06-1.08-.06-.26 0-.63.02-1.11.06l-12-13.77v9.39c0 .96.08 1.68.24 2.16.18.48.5.84.96 1.08.46.22 1.17.4 2.13.54v.6c-.98-.06-2.2-.09-3.66-.09-1.06 0-1.89.03-2.49.09v-.6c.64-.14 1.1-.32 1.38-.54.3-.24.5-.59.6-1.05.1-.48.15-1.21.15-2.19v-10.68c0-.76-.06-1.31-.18-1.65-.1-.34-.29-.57-.57-.69-.28-.12-.74-.2-1.38-.24v-.6c.6.06 1.43.09 2.49.09 1.64 0 3.06-.03 4.26-.09l9.57 10.92v-6.54c0-.96-.09-1.68-.27-2.16-.16-.48-.47-.83-.93-1.05-.46-.24-1.17-.43-2.13-.57v-.6c.98.06 2.2.09 3.66.09 1.06 0 1.89-.03 2.49-.09v.6zm11.174-.6c3.74 0 6.54.75 8.4 2.25 1.86 1.5 2.79 3.71 2.79 6.63 0 1.88-.46 3.53-1.38 4.95-.9 1.4-2.21 2.49-3.93 3.27-1.72.76-3.77 1.14-6.15 1.14l-2.1-.03c-1.36-.04-2.36-.06-3-.06-1.92 0-3.36.03-4.32.09v-.6c.64-.04 1.1-.12 1.38-.24.3-.12.5-.35.6-.69.1-.34.15-.89.15-1.65v-11.88c0-.76-.06-1.31-.18-1.65-.1-.34-.29-.57-.57-.69-.28-.12-.74-.2-1.38-.24v-.6c.78.06 1.91.09 3.39.09l3.03-.03c1.6-.04 2.69-.06 3.27-.06zm-.15.54c-.46 0-.81.07-1.05.21-.22.14-.37.39-.45.75-.08.36-.12.9-.12 1.62v12c0 .72.04 1.26.12 1.62.08.36.23.61.45.75.24.14.6.21 1.08.21 1.98 0 3.36-.7 4.14-2.1.78-1.42 1.17-3.62 1.17-6.6 0-2.92-.41-5.06-1.23-6.42-.8-1.36-2.17-2.04-4.11-2.04zm28.451-.96c1.68 0 3.2.37 4.56 1.11.22.12.41.22.57.3.18.08.33.12.45.12.18 0 .32-.1.42-.3.1-.22.18-.56.24-1.02h.69c-.1 1.3-.15 3.54-.15 6.72h-.69c-.28-2.04-.94-3.58-1.98-4.62-1.02-1.06-2.28-1.59-3.78-1.59-.96 0-1.72.18-2.28.54-.56.36-.84.83-.84 1.41 0 .52.19 1.02.57 1.5.38.46.87.9 1.47 1.32.6.42 1.55 1.04 2.85 1.86 1.2.7 2.18 1.34 2.94 1.92.76.56 1.4 1.24 1.92 2.04.52.78.78 1.67.78 2.67 0 1.64-.75 2.9-2.25 3.78-1.5.88-3.5 1.32-6 1.32-.96 0-1.79-.11-2.49-.33-.7-.2-1.53-.49-2.49-.87-.54-.22-.89-.33-1.05-.33-.18 0-.32.11-.42.33-.1.2-.18.53-.24.99h-.69c.08-1.2.12-3.8.12-7.8h.69c.16 2.32.79 4.11 1.89 5.37 1.1 1.26 2.59 1.89 4.47 1.89.84 0 1.56-.19 2.16-.57.62-.38.93-.96.93-1.74 0-.72-.27-1.35-.81-1.89-.54-.54-1.5-1.24-2.88-2.1-2.08-1.24-3.67-2.39-4.77-3.45-1.1-1.08-1.65-2.28-1.65-3.6 0-1.62.71-2.85 2.13-3.69 1.42-.86 3.29-1.29 5.61-1.29zm28.904 1.02c-.72.14-1.25.36-1.59.66-.32.28-.54.72-.66 1.32-.12.6-.18 1.5-.18 2.7v4.83c0 1.38-.1 2.56-.3 3.54-.18.96-.49 1.8-.93 2.52-.5.76-1.24 1.37-2.22 1.83-.96.44-2.05.66-3.27.66-2.38 0-4.26-.44-5.64-1.32-.76-.52-1.34-1.08-1.74-1.68-.4-.6-.68-1.32-.84-2.16-.16-.84-.24-1.94-.24-3.3v-7.02c0-.76-.06-1.31-.18-1.65-.1-.34-.29-.57-.57-.69-.28-.12-.74-.2-1.38-.24v-.6c1.08.06 2.76.09 5.04.09 2.18 0 3.85-.03 5.01-.09v.6c-.64.04-1.11.12-1.41.24-.28.12-.47.35-.57.69-.1.34-.15.89-.15 1.65v7.53c0 1.42.09 2.6.27 3.54.2.92.6 1.66 1.2 2.22.6.56 1.49.84 2.67.84 1.68 0 2.86-.6 3.54-1.8.68-1.22 1.02-2.91 1.02-5.07v-4.56c0-1.48-.06-2.54-.18-3.18-.12-.66-.39-1.14-.81-1.44-.4-.3-1.08-.52-2.04-.66v-.6c.82.06 1.94.09 3.36.09 1.2 0 2.13-.03 2.79-.09v.6zm8.877 10.26v4.2c0 .76.06 1.31.18 1.65.12.34.34.57.66.69.34.12.87.2 1.59.24v.6c-1.34-.06-3.31-.09-5.91-.09-2 0-3.48.03-4.44.09v-.6c.64-.04 1.1-.12 1.38-.24.3-.12.5-.35.6-.69.1-.34.15-.89.15-1.65v-11.88c0-.76-.06-1.31-.18-1.65-.1-.34-.29-.57-.57-.69-.28-.12-.74-.2-1.38-.24v-.6c.96.06 2.38.09 4.26.09l3.84-.03c.46-.02.99-.03 1.59-.03 2.92 0 5.05.42 6.39 1.26 1.36.84 2.04 2.09 2.04 3.75 0 1.66-.72 3.05-2.16 4.17-1.42 1.1-3.83 1.65-7.23 1.65h-.81zm1.62-10.26c-.46 0-.81.07-1.05.21-.22.14-.37.39-.45.75-.08.36-.12.9-.12 1.62v7.08h.51c1.4 0 2.36-.43 2.88-1.29.54-.88.81-2.08.81-3.6 0-1.62-.2-2.82-.6-3.6-.38-.78-1.04-1.17-1.98-1.17zm17.628 10.26v4.2c0 .76.06 1.31.18 1.65.12.34.34.57.66.69.34.12.87.2 1.59.24v.6c-1.34-.06-3.31-.09-5.91-.09-2 0-3.48.03-4.44.09v-.6c.64-.04 1.1-.12 1.38-.24.3-.12.5-.35.6-.69.1-.34.15-.89.15-1.65v-11.88c0-.76-.06-1.31-.18-1.65-.1-.34-.29-.57-.57-.69-.28-.12-.74-.2-1.38-.24v-.6c.96.06 2.38.09 4.26.09l3.84-.03c.46-.02.99-.03 1.59-.03 2.92 0 5.05.42 6.39 1.26 1.36.84 2.04 2.09 2.04 3.75 0 1.66-.72 3.05-2.16 4.17-1.42 1.1-3.83 1.65-7.23 1.65h-.81zm1.62-10.26c-.46 0-.81.07-1.05.21-.22.14-.37.39-.45.75-.08.36-.12.9-.12 1.62v7.08h.51c1.4 0 2.36-.43 2.88-1.29.54-.88.81-2.08.81-3.6 0-1.62-.2-2.82-.6-3.6-.38-.78-1.04-1.17-1.98-1.17zm20.862-1.02c2.14 0 4.01.37 5.61 1.11 1.62.72 2.87 1.79 3.75 3.21.9 1.4 1.35 3.08 1.35 5.04 0 1.92-.46 3.62-1.38 5.1-.9 1.46-2.17 2.6-3.81 3.42-1.62.8-3.47 1.2-5.55 1.2-2.14 0-4.02-.36-5.64-1.08-1.6-.74-2.85-1.81-3.75-3.21-.88-1.42-1.32-3.11-1.32-5.07 0-1.92.45-3.61 1.35-5.07.92-1.48 2.19-2.62 3.81-3.42 1.64-.82 3.5-1.23 5.58-1.23zm-.12.54c-.92 0-1.73.39-2.43 1.17-.7.76-1.24 1.83-1.62 3.21-.38 1.36-.57 2.92-.57 4.68 0 1.78.21 3.35.63 4.71.44 1.36 1.02 2.41 1.74 3.15.74.72 1.56 1.08 2.46 1.08.92 0 1.73-.38 2.43-1.14.7-.78 1.24-1.85 1.62-3.21.38-1.38.57-2.95.57-4.71 0-1.78-.22-3.35-.66-4.71-.42-1.36-1-2.4-1.74-3.12-.72-.74-1.53-1.11-2.43-1.11zm33.041 16.86c-.56.56-1.18.98-1.86 1.26-.66.28-1.51.42-2.55.42-1.3 0-2.3-.22-3-.66-.7-.46-1.15-1.09-1.35-1.89l-.84-3.39c-.18-1.1-.46-1.83-.84-2.19-.38-.38-.94-.57-1.68-.57h-.51v5.1c0 .76.05 1.31.15 1.65.12.34.32.57.6.69.28.12.74.2 1.38.24v.6c-1.28-.06-3.15-.09-5.61-.09-2 0-3.48.03-4.44.09v-.6c.64-.04 1.1-.12 1.38-.24.3-.12.5-.35.6-.69.1-.34.15-.89.15-1.65v-11.88c0-.76-.06-1.31-.18-1.65-.1-.34-.29-.57-.57-.69-.28-.12-.74-.2-1.38-.24v-.6c.96.06 2.38.09 4.26.09l3.66-.03c.42-.02.91-.03 1.47-.03 5.82 0 8.73 1.54 8.73 4.62 0 1.28-.58 2.39-1.74 3.33-1.14.94-3.07 1.53-5.79 1.77.08 0 .18.01.3.03.14 0 .3.02.48.06 1.68.16 3 .48 3.96.96.98.46 1.6 1.21 1.86 2.25l.63 2.64c.12.5.28.85.48 1.05.2.18.46.27.78.27.36 0 .71-.14 1.05-.42l.42.39zm-11.31-16.38c-.38 0-.66.07-.84.21-.18.14-.31.39-.39.75-.06.36-.09.9-.09 1.62v6.18h.81c1.3 0 2.19-.38 2.67-1.14.48-.78.72-1.86.72-3.24 0-1.46-.22-2.55-.66-3.27-.44-.74-1.18-1.11-2.22-1.11zm29.83-.6c-.14 1.66-.21 3.14-.21 4.44 0 1.2.03 2.12.09 2.76h-.69c-.56-2.36-1.25-4.03-2.07-5.01-.8-1-1.85-1.5-3.15-1.5h-.27v14.07c0 .84.08 1.45.24 1.83.16.38.44.64.84.78.4.14 1.05.23 1.95.27v.6c-1.12-.06-3.14-.09-6.06-.09-2.9 0-4.83.03-5.79.09v-.6c.9-.04 1.55-.13 1.95-.27.4-.14.68-.4.84-.78.16-.38.24-.99.24-1.83V98.45h-.27c-1.3 0-2.36.5-3.18 1.5-.8.98-1.48 2.65-2.04 5.01h-.69c.06-.64.09-1.56.09-2.76 0-1.3-.07-2.78-.21-4.44 1.78.06 4.8.09 9.06.09 4.38 0 7.49-.03 9.33-.09zm17.738.6c-.64.04-1.11.12-1.41.24-.28.12-.47.35-.57.69-.1.34-.15.89-.15 1.65v11.88c0 .76.05 1.31.15 1.65.1.34.29.57.57.69.3.12.77.2 1.41.24v.6c-1.1-.06-2.72-.09-4.86-.09-2.38 0-4.11.03-5.19.09v-.6c.64-.04 1.1-.12 1.38-.24.3-.12.5-.35.6-.69.1-.34.15-.89.15-1.65v-11.88c0-.76-.06-1.31-.18-1.65-.1-.34-.29-.57-.57-.69-.28-.12-.74-.2-1.38-.24v-.6c1.08.06 2.81.09 5.19.09 2.12 0 3.74-.03 4.86-.09v.6zm20.897 0c-.64.14-1.11.33-1.41.57-.28.22-.47.57-.57 1.05-.1.46-.15 1.18-.15 2.16V116c-.48-.04-.84-.06-1.08-.06-.26 0-.63.02-1.11.06l-12-13.77v9.39c0 .96.08 1.68.24 2.16.18.48.5.84.96 1.08.46.22 1.17.4 2.13.54v.6c-.98-.06-2.2-.09-3.66-.09-1.06 0-1.89.03-2.49.09v-.6c.64-.14 1.1-.32 1.38-.54.3-.24.5-.59.6-1.05.1-.48.15-1.21.15-2.19v-10.68c0-.76-.06-1.31-.18-1.65-.1-.34-.29-.57-.57-.69-.28-.12-.74-.2-1.38-.24v-.6c.6.06 1.43.09 2.49.09 1.64 0 3.06-.03 4.26-.09l9.57 10.92v-6.54c0-.96-.09-1.68-.27-2.16-.16-.48-.47-.83-.93-1.05-.46-.24-1.17-.43-2.13-.57v-.6c.98.06 2.2.09 3.66.09 1.06 0 1.89-.03 2.49-.09v.6zm24.571 13.5c0 1.22.07 2.6.21 4.14-1.3-.06-3.49-.09-6.57-.09-4.4 0-7.7.03-9.9.09v-.6c.64-.04 1.1-.12 1.38-.24.3-.12.5-.35.6-.69.1-.34.15-.89.15-1.65v-11.88c0-.76-.06-1.31-.18-1.65-.1-.34-.29-.57-.57-.69-.28-.12-.74-.2-1.38-.24v-.6c2.2.06 5.5.09 9.9.09 2.8 0 4.79-.03 5.97-.09-.14 1.42-.21 2.7-.21 3.84 0 .78.03 1.4.09 1.86h-.69c-.4-1.78-1.04-3.06-1.92-3.84-.86-.78-1.96-1.17-3.3-1.17h-.39c-.56 0-.96.1-1.2.3-.22.2-.33.63-.33 1.29v6.48h.69c.96 0 1.72-.34 2.28-1.02.58-.7.95-1.48 1.11-2.34h.69c-.06.68-.09 1.48-.09 2.4v1.26c0 .98.06 2.2.18 3.66h-.69c-.14-.96-.51-1.76-1.11-2.4-.6-.64-1.39-.96-2.37-.96h-.69v6.6c0 .66.11 1.09.33 1.29.24.2.64.3 1.2.3h.69c1.4 0 2.56-.43 3.48-1.29.94-.88 1.62-2.32 2.04-4.32h.69c-.06.56-.09 1.28-.09 2.16zm19.024 1.62c.6 1.24 1.19 1.88 1.77 1.92v.6c-1.02-.06-2.49-.09-4.41-.09-2.42 0-4.2.03-5.34.09v-.6c.62-.04 1.08-.14 1.38-.3.3-.18.45-.47.45-.87 0-.36-.13-.81-.39-1.35l-1.47-3.42h-5.61c-.68 1.56-1.02 2.81-1.02 3.75 0 .8.24 1.36.72 1.68.48.3 1.17.47 2.07.51v.6c-1.5-.06-2.81-.09-3.93-.09-.94 0-1.71.03-2.31.09v-.6c.48-.08.92-.38 1.32-.9.42-.52.9-1.39 1.44-2.61l6.15-14.13c.44.04.77.06.99.06.22 0 .55-.02.99-.06l7.2 15.72zm-8.28-4.62l-2.55-5.88-2.55 5.88h5.1zm20.17-11.52c1.26 0 2.26.17 3 .51.76.32 1.52.8 2.28 1.44.22.18.41.27.57.27.4 0 .66-.6.78-1.8h.69c-.08 1.2-.12 3.3-.12 6.3h-.69c-.22-1.12-.43-1.92-.63-2.4-.18-.5-.47-.98-.87-1.44-.56-.62-1.17-1.1-1.83-1.44a4.21 4.21 0 00-2.04-.54c-1.06 0-1.98.35-2.76 1.05-.78.7-1.39 1.71-1.83 3.03-.42 1.3-.63 2.84-.63 4.62 0 1.8.24 3.35.72 4.65.48 1.28 1.13 2.26 1.95 2.94.82.66 1.74.99 2.76.99.74 0 1.46-.17 2.16-.51.7-.36 1.31-.85 1.83-1.47.4-.48.69-1 .87-1.56.18-.58.35-1.44.51-2.58h.69c0 3.14.04 5.34.12 6.6h-.69c-.06-.62-.15-1.07-.27-1.35-.12-.3-.28-.45-.48-.45-.16 0-.36.09-.6.27a9.28 9.28 0 01-2.37 1.44c-.86.34-1.87.51-3.03.51-1.98 0-3.74-.37-5.28-1.11-1.52-.74-2.72-1.81-3.6-3.21-.86-1.42-1.29-3.1-1.29-5.04 0-1.9.44-3.58 1.32-5.04.9-1.48 2.11-2.63 3.63-3.45 1.54-.82 3.25-1.23 5.13-1.23zm32.34 1.02c-.64.04-1.11.12-1.41.24-.28.12-.47.35-.57.69-.1.34-.15.89-.15 1.65v11.88c0 .76.05 1.31.15 1.65.12.34.32.57.6.69.28.12.74.2 1.38.24v.6c-1.02-.06-2.6-.09-4.74-.09-2.3 0-4.07.03-5.31.09v-.6c.64-.04 1.1-.12 1.38-.24.3-.12.5-.35.6-.69.1-.34.15-.89.15-1.65v-5.7h-6.75v5.7c0 .76.05 1.31.15 1.65.12.34.32.57.6.69.28.12.74.2 1.38.24v.6c-1.22-.06-2.99-.09-5.31-.09-2.14 0-3.72.03-4.74.09v-.6c.64-.04 1.1-.12 1.38-.24.3-.12.5-.35.6-.69.1-.34.15-.89.15-1.65v-11.88c0-.76-.06-1.31-.18-1.65-.1-.34-.29-.57-.57-.69-.28-.12-.74-.2-1.38-.24v-.6c1.02.06 2.6.09 4.74.09 2.3 0 4.07-.03 5.31-.09v.6c-.64.04-1.11.12-1.41.24-.28.12-.47.35-.57.69-.1.34-.15.89-.15 1.65v5.58h6.75v-5.58c0-.76-.06-1.31-.18-1.65-.1-.34-.29-.57-.57-.69-.28-.12-.74-.2-1.38-.24v-.6c1.22.06 2.99.09 5.31.09 2.14 0 3.72-.03 4.74-.09v.6zm27.966-3c-.62.14-1.08.36-1.38.66-.3.28-.5.72-.6 1.32-.1.6-.15 1.5-.15 2.7v7.23c0 2.88-.41 5-1.23 6.36-.54.9-1.34 1.59-2.4 2.07-1.04.48-2.39.72-4.05.72-2.42 0-4.3-.48-5.64-1.44-.98-.7-1.64-1.64-1.98-2.82-.32-1.18-.48-2.78-.48-4.8v-9.42c0-.76-.05-1.31-.15-1.65-.1-.34-.3-.57-.6-.69-.28-.12-.74-.2-1.38-.24v-.6c1.14.06 2.9.09 5.28.09 2.36 0 4.15-.03 5.37-.09v.6c-.72.04-1.25.12-1.59.24-.32.12-.54.35-.66.69-.12.34-.18.89-.18 1.65v12.24c0 1.92.3 3.27.9 4.05.6.76 1.55 1.14 2.85 1.14 1.9 0 3.25-.67 4.05-2.01.8-1.36 1.2-3.28 1.2-5.76v-6.96c0-1.48-.06-2.54-.18-3.18-.12-.66-.39-1.14-.81-1.44-.4-.3-1.08-.52-2.04-.66v-.6c.82.06 1.94.09 3.36.09 1.06 0 1.89-.03 2.49-.09v.6zm4.015 15.9c.96 0 1.69.22 2.19.66.52.44.78 1.08.78 1.92 0 .84-.26 1.48-.78 1.92-.5.44-1.23.66-2.19.66s-1.7-.22-2.22-.66c-.5-.44-.75-1.08-.75-1.92 0-.84.25-1.48.75-1.92.52-.44 1.26-.66 2.22-.66zm13.296-16.92c1.14 0 2.06.11 2.76.33.72.2 1.42.49 2.1.87.22.12.41.22.57.3.18.08.33.12.45.12.18 0 .32-.1.42-.3.1-.22.18-.56.24-1.02h.69c-.1 1.44-.15 3.88-.15 7.32h-.69a10.16 10.16 0 00-.78-3.27c-.44-1.04-1.04-1.89-1.8-2.55-.76-.66-1.64-.99-2.64-.99-.92 0-1.66.25-2.22.75-.56.48-.84 1.16-.84 2.04 0 .68.15 1.27.45 1.77.3.5.74.99 1.32 1.47.58.46 1.53 1.15 2.85 2.07.12.06.23.13.33.21.12.08.23.16.33.24 1.1.76 1.98 1.44 2.64 2.04a6.86 6.86 0 011.59 2.04c.42.78.63 1.68.63 2.7 0 1.3-.37 2.4-1.11 3.3-.72.88-1.7 1.54-2.94 1.98-1.24.44-2.61.66-4.11.66-1.22 0-2.24-.1-3.06-.3-.8-.2-1.55-.47-2.25-.81-.44-.28-.78-.42-1.02-.42-.18 0-.32.11-.42.33-.1.2-.18.53-.24.99h-.69c.08-1.36.12-4.26.12-8.7h.69c.14 2.38.64 4.31 1.5 5.79.86 1.48 2.18 2.22 3.96 2.22 1.1 0 1.97-.26 2.61-.78.66-.52.99-1.24.99-2.16 0-1.14-.36-2.11-1.08-2.91-.7-.82-1.8-1.73-3.3-2.73-1.2-.8-2.16-1.5-2.88-2.1-.72-.6-1.31-1.29-1.77-2.07-.46-.8-.69-1.72-.69-2.76 0-1.26.34-2.31 1.02-3.15.68-.86 1.58-1.49 2.7-1.89 1.14-.42 2.38-.63 3.72-.63zm13.569 16.92c.96 0 1.69.22 2.19.66.52.44.78 1.08.78 1.92 0 .84-.26 1.48-.78 1.92-.5.44-1.23.66-2.19.66s-1.7-.22-2.22-.66c-.5-.44-.75-1.08-.75-1.92 0-.84.25-1.48.75-1.92.52-.44 1.26-.66 2.22-.66zm20.246-13.92c1.68 0 3.2.37 4.56 1.11.22.12.41.22.57.3.18.08.33.12.45.12.18 0 .32-.1.42-.3.1-.22.18-.56.24-1.02h.69c-.1 1.3-.15 3.54-.15 6.72h-.69c-.28-2.04-.94-3.58-1.98-4.62-1.02-1.06-2.28-1.59-3.78-1.59-.96 0-1.72.18-2.28.54-.56.36-.84.83-.84 1.41 0 .52.19 1.02.57 1.5.38.46.87.9 1.47 1.32.6.42 1.55 1.04 2.85 1.86 1.2.7 2.18 1.34 2.94 1.92.76.56 1.4 1.24 1.92 2.04.52.78.78 1.67.78 2.67 0 1.64-.75 2.9-2.25 3.78-1.5.88-3.5 1.32-6 1.32-.96 0-1.79-.11-2.49-.33-.7-.2-1.53-.49-2.49-.87-.54-.22-.89-.33-1.05-.33-.18 0-.32.11-.42.33-.1.2-.18.53-.24.99h-.69c.08-1.2.12-3.8.12-7.8h.69c.16 2.32.79 4.11 1.89 5.37 1.1 1.26 2.59 1.89 4.47 1.89.84 0 1.56-.19 2.16-.57.62-.38.93-.96.93-1.74 0-.72-.27-1.35-.81-1.89-.54-.54-1.5-1.24-2.88-2.1-2.08-1.24-3.67-2.39-4.77-3.45-1.1-1.08-1.65-2.28-1.65-3.6 0-1.62.71-2.85 2.13-3.69 1.42-.86 3.29-1.29 5.61-1.29zm27.974.42c-.14 1.66-.21 3.14-.21 4.44 0 1.2.03 2.12.09 2.76h-.69c-.56-2.36-1.25-4.03-2.07-5.01-.8-1-1.85-1.5-3.15-1.5h-.27v14.07c0 .84.08 1.45.24 1.83.16.38.44.64.84.78.4.14 1.05.23 1.95.27v.6c-1.12-.06-3.14-.09-6.06-.09-2.9 0-4.83.03-5.79.09v-.6c.9-.04 1.55-.13 1.95-.27.4-.14.68-.4.84-.78.16-.38.24-.99.24-1.83V98.45h-.27c-1.3 0-2.36.5-3.18 1.5-.8.98-1.48 2.65-2.04 5.01h-.69c.06-.64.09-1.56.09-2.76 0-1.3-.07-2.78-.21-4.44 1.78.06 4.8.09 9.06.09 4.38 0 7.49-.03 9.33-.09zm16.487 15.72c.6 1.24 1.19 1.88 1.77 1.92v.6c-1.02-.06-2.49-.09-4.41-.09-2.42 0-4.2.03-5.34.09v-.6c.62-.04 1.08-.14 1.38-.3.3-.18.45-.47.45-.87 0-.36-.13-.81-.39-1.35l-1.47-3.42h-5.61c-.68 1.56-1.02 2.81-1.02 3.75 0 .8.24 1.36.72 1.68.48.3 1.17.47 2.07.51v.6c-1.5-.06-2.81-.09-3.93-.09-.94 0-1.71.03-2.31.09v-.6c.48-.08.92-.38 1.32-.9.42-.52.9-1.39 1.44-2.61l6.15-14.13c.44.04.77.06.99.06.22 0 .55-.02.99-.06l7.2 15.72zm-8.28-4.62l-2.55-5.88-2.55 5.88h5.1zm27.008-11.1c-.14 1.66-.21 3.14-.21 4.44 0 1.2.03 2.12.09 2.76h-.69c-.56-2.36-1.25-4.03-2.07-5.01-.8-1-1.85-1.5-3.15-1.5h-.27v14.07c0 .84.08 1.45.24 1.83.16.38.44.64.84.78.4.14 1.05.23 1.95.27v.6c-1.12-.06-3.14-.09-6.06-.09-2.9 0-4.83.03-5.79.09v-.6c.9-.04 1.55-.13 1.95-.27.4-.14.68-.4.84-.78.16-.38.24-.99.24-1.83V98.45h-.27c-1.3 0-2.36.5-3.18 1.5-.8.98-1.48 2.65-2.04 5.01h-.69c.06-.64.09-1.56.09-2.76 0-1.3-.07-2.78-.21-4.44 1.78.06 4.8.09 9.06.09 4.38 0 7.49-.03 9.33-.09zm17.854 14.1c0 1.22.07 2.6.21 4.14-1.3-.06-3.49-.09-6.57-.09-4.4 0-7.7.03-9.9.09v-.6c.64-.04 1.1-.12 1.38-.24.3-.12.5-.35.6-.69.1-.34.15-.89.15-1.65v-11.88c0-.76-.06-1.31-.18-1.65-.1-.34-.29-.57-.57-.69-.28-.12-.74-.2-1.38-.24v-.6c2.2.06 5.5.09 9.9.09 2.8 0 4.79-.03 5.97-.09-.14 1.42-.21 2.7-.21 3.84 0 .78.03 1.4.09 1.86h-.69c-.4-1.78-1.04-3.06-1.92-3.84-.86-.78-1.96-1.17-3.3-1.17h-.39c-.56 0-.96.1-1.2.3-.22.2-.33.63-.33 1.29v6.48h.69c.96 0 1.72-.34 2.28-1.02.58-.7.95-1.48 1.11-2.34h.69c-.06.68-.09 1.48-.09 2.4v1.26c0 .98.06 2.2.18 3.66h-.69c-.14-.96-.51-1.76-1.11-2.4-.6-.64-1.39-.96-2.37-.96h-.69v6.6c0 .66.11 1.09.33 1.29.24.2.64.3 1.2.3h.69c1.4 0 2.56-.43 3.48-1.29.94-.88 1.62-2.32 2.04-4.32h.69c-.06.56-.09 1.28-.09 2.16z" fill="#D9AC75"/><g clip-path="url(#clip0_11_106)"><path d="M218.329 81.513c-.341.173-.728-.13-.659-.518l.733-4.14-3.11-2.936c-.29-.274-.139-.777.25-.83l4.323-.61 1.928-3.786a.455.455 0 01.818 0l1.928 3.786 4.324.61c.389.053.54.556.248.83l-3.108 2.937.732 4.139c.069.387-.317.69-.658.518l-3.876-1.974-3.873 1.974z" fill="#C19A69"/></g><g clip-path="url(#clip1_11_106)"><path d="M260.628 80.46c-.268.135-.571-.103-.517-.408l.575-3.252-2.443-2.307c-.228-.216-.11-.61.196-.653l3.397-.478 1.515-2.975a.358.358 0 01.643 0l1.514 2.975 3.397.478c.306.043.425.437.196.653l-2.443 2.307.576 3.252c.054.305-.25.543-.517.407l-3.046-1.55-3.043 1.55z" fill="#C19A69"/></g><g clip-path="url(#clip2_11_106)"><path d="M299.629 78.44c-.17.087-.363-.065-.329-.258l.366-2.07-1.554-1.468c-.146-.137-.07-.389.125-.416l2.161-.304.964-1.893a.227.227 0 01.409 0l.964 1.893 2.162.304c.194.028.27.279.124.416l-1.554 1.468.366 2.07c.035.193-.159.345-.329.259l-1.938-.987-1.937.987z" fill="#C19A69"/></g><g clip-path="url(#clip3_11_106)"><path d="M183.776 80.46c.268.135.571-.103.517-.408l-.575-3.252 2.443-2.307c.228-.216.11-.61-.196-.653l-3.397-.478-1.515-2.975a.358.358 0 00-.643 0l-1.514 2.975-3.397.478c-.306.043-.425.437-.196.653l2.443 2.307-.576 3.252c-.054.305.25.543.517.407l3.046-1.55 3.043 1.55z" fill="#C19A69"/></g><g clip-path="url(#clip4_11_106)"><path d="M144.468 78.44c.17.087.363-.065.329-.258l-.367-2.07 1.555-1.468c.145-.137.07-.389-.125-.416l-2.161-.304-.964-1.893a.227.227 0 00-.409 0l-.964 1.893-2.162.304c-.194.028-.27.279-.124.416l1.554 1.468-.366 2.07c-.035.193.159.345.329.259l1.938-.987 1.937.987z" fill="#C19A69"/></g><g clip-path="url(#clip5_11_106)"><path d="M310.329 142.513c-.341.173-.728-.131-.659-.518l.733-4.139-3.11-2.937c-.29-.274-.139-.777.25-.831l4.323-.609 1.928-3.786a.455.455 0 01.818 0l1.928 3.786 4.324.609c.389.054.54.557.248.831l-3.108 2.937.732 4.139c.069.387-.317.691-.658.518l-3.876-1.974-3.873 1.974z" fill="#C19A69"/></g><g clip-path="url(#clip6_11_106)"><path d="M352.628 141.459c-.268.136-.571-.102-.517-.407l.575-3.252-2.443-2.307c-.228-.216-.11-.61.196-.653l3.397-.479 1.515-2.974a.358.358 0 01.643 0l1.514 2.974 3.397.479c.306.043.425.437.196.653l-2.443 2.307.576 3.252c.054.305-.25.543-.517.407l-3.046-1.551-3.043 1.551z" fill="#C19A69"/></g><g clip-path="url(#clip7_11_106)"><path d="M391.629 139.441c-.17.086-.363-.066-.329-.259l.366-2.07-1.554-1.468c-.146-.137-.07-.389.125-.416l2.161-.304.964-1.893a.227.227 0 01.409 0l.964 1.893 2.162.304c.194.027.27.279.124.416l-1.554 1.468.366 2.07c.035.193-.159.345-.329.259l-1.938-.987-1.937.987z" fill="#C19A69"/></g><g clip-path="url(#clip8_11_106)"><path d="M275.776 141.459c.268.136.571-.102.517-.407l-.575-3.252 2.443-2.307c.228-.216.11-.61-.196-.653l-3.397-.479-1.515-2.974a.358.358 0 00-.643 0l-1.514 2.974-3.397.479c-.306.043-.425.437-.196.653l2.443 2.307-.576 3.252c-.054.305.25.543.517.407l3.046-1.551 3.043 1.551z" fill="#C19A69"/></g><g clip-path="url(#clip9_11_106)"><path d="M236.468 139.441c.17.086.363-.066.329-.259l-.367-2.07 1.555-1.468c.145-.137.07-.389-.125-.416l-2.161-.304-.964-1.893a.227.227 0 00-.409 0l-.964 1.893-2.162.304c-.194.027-.27.279-.124.416l1.554 1.468-.366 2.07c-.035.193.159.345.329.259l1.938-.987 1.937.987z" fill="#C19A69"/></g><path d="M137.621.715c1.23 1.505 2.363 2.885 3.497 4.274.279-.048.317-.058.596-.106.221-.804.409-1.612.65-2.406.731-2.445 2.203-2.963 4.524-1.496 1.021.644 2.069 1.355 2.805 2.236 2.997 3.592 7.091 3.38 11.153 2.464 2.923-.658 5.786-1.752 8.472-3.006 6.802-3.19 13.845-3.485 20.808-1.108 6.334 2.159 12.411 4.942 18.53 7.59 2.896 1.254 5.646 2.793 8.413 4.284 3.428 1.844 6.936 3.011 11.084 3.113 3.884.092 7.725 1.524 11.615 1.65 7.774.247 15.57-.111 23.349.03 2.402.043 4.787.9 7.189 1.36 1.74.334 3.481.76 5.248.91 5.523.47 11.218.232 16.559 1.365 8.499 1.796 16.875.73 25.309.402 6.12-.238 12.18-.238 17.955 1.99.554.212 1.22.217 1.838.265 3.411.257 4.652 2.367 2.81 4.982-.812 1.147-1.994 2.076-2.848 3.2-.462.604-.596 1.408-.881 2.124.913.165 1.897.61 2.724.436 1.456-.305 2.778-1.104 4.223-1.481 1.928-.504 3.916-.833 5.888-1.181 1.306-.233 2.654-.3 3.949-.562 6.012-1.205 11.97-1.133 17.638 1.128 1.945.78 3.798 2.169 5.12 3.684 1.558 1.796.252 3.897-2.09 3.964-6.839.199-14.323 5.156-15.376 11.149-.973 5.533-.854 11.23-1.059 16.86-.069 1.946 1.419 2.363 3.095 1.496 1.289-.668 2.444-1.612 3.481-2.59 1.349-1.273 2.832-2.566 3.67-4.105.768-1.413.892-3.16 1.069-4.783.44-3.983.548-8.006 1.176-11.966.527-3.287 3.536-4.376 6.732-5.083 3.052-.677 5.367.19 7.339 2.348 4.395 4.817 5.743 9.856 2.203 15.63-1.139 1.86-1.741 4.043-2.241 6.144-.171.716.5 2.057 1.188 2.352.709.305 2.229-.043 2.826-.6 1.348-1.254 2.337-2.817 3.487-4.25l.016-.02c.843-1.055 2.675-.696 2.96.577.027.13.059.261.086.392 7.113 1.152 12.077-.76 14.919-6.55 2.584-5.267 6.721-8.825 12.298-11.284 4.894-2.159 9.762-4.366 14.662-6.52 5.603-2.464 6.323-3.607 5.56-9.067-.634-4.54.172-6.206 4.663-8.171 2.219-.973 4.675-1.67 7.108-2.048 4.175-.649 7.57 1.39 8.322 5.15.736 3.69 2.488 6.56 5.738 8.942 3.046 2.231 3.036 4.627.376 7.334-3.046 3.102-4.899 7.091-8.999 9.434-1.601.915-1.44 2.57-.36 3.887 4.153 5.064 3.756 8.36-3.443 12.702-2.38 1.433-4.675 2.982-7.087 4.362-.29.165-.666.198-1.069.198-.645.005-1.214-.377-1.408-.934 0-.005 0-.01.006-.014 1.837-1.22 3.669-2.445 5.512-3.66 2.02-1.326 4.196-2.498 6.044-3.998 2.337-1.893 2.407-3.394.785-5.79-.468-.687-1.011-1.336-1.451-2.033-1.563-2.479-1.236-4.028.881-6.09 3.127-3.05 6.135-6.2 9.176-9.318 1.558-1.598 1.263-3.268-.387-4.478-3.744-2.735-5.915-6.056-6.393-10.46-.268-2.484-2.439-3.646-5.281-3.385a24.822 24.822 0 00-4.454.843c-5.899 1.665-6.812 2.962-6.124 8.413.682 5.349-.43 7.15-5.851 9.585-5.598 2.512-11.159 5.107-16.8 7.547-4.846 2.095-8.258 5.378-10.267 9.787-2.358 5.17-6.522 7.678-12.695 7.605-1.859-.019-3.729.01-5.577.175-.564.048-1.123.576-1.601.968-.913.75-1.638 1.752-2.67 2.304-3.342 1.8-7.253-.087-6.855-3.539.317-2.725 1.407-5.48 2.691-7.997 2.536-4.966 1.666-9.202-2.45-13.08-2.879-2.715-9.052-1.573-9.88 2.14-.838 3.747-1.155 7.644-1.112 11.473.027 2.822-.166 5.247-2.729 7.189-.859.653-1.305 1.733-2.101 2.488-1.396 1.336-2.723 2.841-4.416 3.78-2.939 1.632-6.253.388-6.431-2.643-.392-6.738-.763-13.515 1.537-20.142 1.708-4.914 10.396-10.592 17.584-11.38-1.252-.955-2.364-2.15-3.782-2.813-5.185-2.406-10.702-2.164-16.273-1.37-4.911.702-9.848 1.132-14.383 3.282-1.762.837-3.906.886-5.41-.77-1.295-1.423-.854-2.885.274-4.207 1.037-1.21 2.23-2.318 3.229-3.553.677-.832 1.085-1.912-.58-2.212-6.098-1.099-12.045-3.127-18.444-2.382-1.773.208-3.578.18-5.351.388-13.297 1.573-26.298-1.496-39.461-2.034-8.687-3.18-17.767-1.825-26.745-2.062-6.13-.164-12.222-1.64-18.341-1.709-8.376-.096-14.592-4.37-21.34-7.72-7.065-3.51-14.108-6.995-22.183-8.365-4.814-.818-9.413-.523-13.904 1.311-2.933 1.196-5.84 2.677-8.935 3.249-3.416.634-7.059.629-10.551.372-1.29-.092-2.445-1.69-3.648-2.614-1.075-.823-2.128-1.66-3.643-2.846-.295 1.186-.483 1.902-.65 2.624-.569 2.464-2.224 3.074-4.4 1.462-1.107-.819-2.031-1.835-3.025-2.823a1.29 1.29 0 00-1.278-.3c-2.756.852-4.411 2.464-4.954 5.359-1.321 7.097-2.627 14.16-1.509 21.387.574 3.737-.484 6.864-4.186 9.008-2.809 1.627-4.083 3.815-4.475 6.956-.44 3.52-1.665 7.063-3.218 10.34-2.606 5.519-3.073 11.221-2.966 17.064.033 1.612.102 3.234-.021 4.836-.011.155-.097.305-.226.45-.456.542-1.429.547-1.8-.048a.4.4 0 01-.075-.223c-.096-7.324-.757-14.706 2.563-21.71.553-1.172.865-2.445 1.214-3.69 1.016-3.63 1.768-7.338 3.105-10.867.548-1.457 2.096-2.86 3.589-3.718 4.04-2.318 5.061-5.44 4.433-9.54-1.188-7.775.075-15.433 2.063-23.004.462-1.767 1.246-3.18 3.701-3.568 1.225-.194 2.348-.93 3.39-1.544.495-.28 1.112-.18 1.446.223zm109.636 176.581c-3.083.252-6.076.528-9.068.736-2.842.199-4.631-.958-5.174-3.519-.285-1.341-.854-2.067-2.643-2.038-1.139.019-2.354-.663-3.423-1.205-2.493-1.269-5.05-2.488-7.322-4.028-1.354-.92-2.617-2.27-3.261-3.674-3.901-8.496-10.864-11.371-19.82-10.156-3.089.416-6.232.62-9.359.663-3.798.054-7.113-.958-9.794-3.708-1.02-1.045-3.035-1.336-4.631-1.893-1.848-.648-3.916-.943-5.555-1.868-4.314-2.43-8.44-5.136-12.674-7.692a2.446 2.446 0 00-1.477-.334c-5.007.46-8.333-2.75-12.475-4.168v-.01c-.011-.566.408-1.065 1.01-1.21.462-.111.902-.189 1.236-.053 2.353.958 4.609 2.125 6.898 3.209.236.112.483.315.72.305 7.645-.208 11.846 5.616 17.869 8.239 1.472.644 3.084 1.022 4.609 1.569 1.924.687 4.374.973 5.636 2.217 2.697 2.662 5.888 3.597 9.59 3.5 3.036-.083 6.066-.421 9.085-.722 10.369-1.026 16.913 2.484 21.028 11.095.623 1.298 1.929 2.474 3.224 3.331 2.154 1.428 4.534 2.58 6.855 3.805.682.358 1.515.881 2.186.789 3.186-.45 4.127 1.317 4.61 3.558.312 1.452 1.203 2.057 2.805 1.951 2.766-.184 5.544.435 8.091-1.583 1.364-1.085 2.971.503 3.33 1.839 2.402 8.912 9.461 13.893 17.972 17.761 4.953 2.251 9.815 4.662 14.731 6.976a890.889 890.889 0 0011.105 5.136c3.078 1.399 4.002 1.065 5.034-1.956.892-2.619 1.644-5.276 2.391-7.934 2.536-9.028 8.752-15.737 16.671-21.319.859-.605 2.369-.716 3.546-.653 8.042.435 16.079.91 24.106 1.534 2.047.16 3.417-.305 4.561-1.791 2.547-3.316 5.163-6.583 7.769-9.861 2.928-3.674 6.721-4.869 11.895-5.17 7.962-.464 13.512 2.687 18.755 7.184 2.138 1.835 4.212 3.732 6.334 5.582 1.634 1.423 2.703 2.846 2.751 5.179.091 4.338 4.379 8.191 9.149 8.467 4.089.237 6.619 2.004 8.21 5.252a26.441 26.441 0 002.304 3.815c1.397 1.946 3.584 2.25 5.926 1.989 2.386-.261 2.547-2.086 2.826-3.621 1.042-5.751-.392-11.158-3.906-15.916-1.875-2.542-2.917-5.117-3.674-8.041-.693-2.667-1.859-5.208-3.24-7.648-2.815-4.977-2.224-9.266 3.057-12.267 7.436-4.226 13.802-9.43 19.782-15.137 1.52-1.452 3.395-2.614 5.222-3.776.247-.155.612-.155 1.01-.126.612.049 1.123.446 1.278.978-7.381 5.795-14.758 11.594-22.145 17.379-.333.261-.763.416-1.15.624-7.446 4.047-8.059 6.569-3.949 13.38 1.376 2.28 1.746 5.034 2.751 7.513.784 1.931 1.585 3.935 2.842 5.625 4.475 5.998 5.48 12.552 3.89 19.431-.946 4.105-8.123 5.044-11.599 1.549-1.338-1.346-2.278-3.084-3.1-4.759-1.322-2.701-3.288-4.322-6.716-4.318-4.438.005-7.409-1.829-8.94-5.688-.79-1.994-2.686-3.635-2.149-6.051.081-.348-.381-.91-.752-1.21-5.007-4.008-9.896-8.152-15.156-11.864-1.536-1.085-4.131-1.061-6.275-1.312-1.574-.189-3.245.213-4.792-.039-2.783-.455-5.024.232-6.689 2.164-2.794 3.243-5.663 6.467-8.086 9.938-2.487 3.558-5.566 4.947-10.283 4.449-7.102-.756-14.264-1.07-21.415-1.399-1.257-.058-2.788.479-3.798 1.19-2.106 1.487-3.949 3.273-5.894 4.943-4.056 3.49-6.361 7.919-8.107 12.596-1.337 3.587-2.213 7.314-3.583 10.886-1.187 3.108-3.229 3.854-6.517 2.334-11.105-5.127-22.28-10.147-33.138-15.67-7.113-3.63-9.294-6.874-12.921-15.273z" fill="#C19A69"/><defs><clipPath id="clip0_11_106"><path fill="#fff" transform="translate(215.141 68)" d="M0 0h14.123v14H0z"/></clipPath><clipPath id="clip1_11_106"><path fill="#fff" transform="translate(258.123 69.842)" d="M0 0h11.097v11H0z"/></clipPath><clipPath id="clip2_11_106"><path fill="#fff" transform="translate(298.035 71.684)" d="M0 0h7.061v7H0z"/></clipPath><clipPath id="clip3_11_106"><path fill="#fff" transform="matrix(-1 0 0 1 186.281 69.842)" d="M0 0h11.097v11H0z"/></clipPath><clipPath id="clip4_11_106"><path fill="#fff" transform="matrix(-1 0 0 1 146.062 71.684)" d="M0 0h7.061v7H0z"/></clipPath><clipPath id="clip5_11_106"><path fill="#fff" transform="translate(307.141 129)" d="M0 0h14.123v14H0z"/></clipPath><clipPath id="clip6_11_106"><path fill="#fff" transform="translate(350.123 130.842)" d="M0 0h11.097v11H0z"/></clipPath><clipPath id="clip7_11_106"><path fill="#fff" transform="translate(390.035 132.684)" d="M0 0h7.061v7H0z"/></clipPath><clipPath id="clip8_11_106"><path fill="#fff" transform="matrix(-1 0 0 1 278.281 130.842)" d="M0 0h11.097v11H0z"/></clipPath><clipPath id="clip9_11_106"><path fill="#fff" transform="matrix(-1 0 0 1 238.062 132.684)" d="M0 0h7.061v7H0z"/></clipPath></defs></svg>