<svg width="230" height="58" fill="none" xmlns="http://www.w3.org/2000/svg"><path d="M229.06 43.013H60.03v2.16h169.03v-2.16zm-123.19-8.159h-18.5v-1.7c1.63-.08 2.98-.24 4.06-.48 1.08-.24 1.62-.53 1.62-.89 0-.14-.02-.32-.06-.53-.04-.21-.1-.39-.19-.55l-3.69-7.618H73.5c-.59 1.12-1.06 2.09-1.43 2.92-.37.83-.7 1.6-.99 2.3-.27.689-.46 1.249-.57 1.679-.1.43-.16.78-.16 1.05 0 .64.66 1.13 1.98 1.48 1.32.35 2.8.56 4.45.62v1.699H60.03v-1.7c.54-.03 1.22-.12 2.04-.28.82-.15 1.48-.35 2.01-.61.84-.43 1.48-.88 1.94-1.35.46-.47.91-1.12 1.35-1.949 2.24-4.26 4.7-9.048 7.4-14.367 2.7-5.32 5.1-10.049 7.21-14.198h2.51l14.83 29.315c.31.62.67 1.13 1.07 1.51.4.38.95.76 1.66 1.13.48.22 1.11.41 1.88.56.77.15 1.42.24 1.94.25v1.709zm-17.9-13.888L81.23 7.78l-6.64 13.187h13.38zm48.79-1.699c.94.8 1.64 1.67 2.09 2.62.45.95.67 2.059.67 3.319 0 3-1.45 5.479-4.36 7.428-2.91 1.95-6.51 2.92-10.82 2.92-1.99 0-3.97-.24-5.96-.71-1.99-.47-3.7-1.04-5.14-1.71l-1.35 1.75h-2.51l-.44-11.638h2.54c.52 1.44 1.13 2.73 1.83 3.89.7 1.16 1.63 2.239 2.77 3.249 1.09.94 2.36 1.69 3.81 2.25 1.45.56 3.14.84 5.06.84 1.44 0 2.7-.14 3.78-.43 1.08-.29 1.95-.7 2.62-1.22.67-.53 1.17-1.15 1.49-1.86.32-.71.49-1.53.49-2.46 0-1.36-.5-2.63-1.51-3.8-1-1.169-2.5-2.069-4.48-2.669-1.36-.41-2.92-.87-4.67-1.37-1.76-.5-3.27-.97-4.55-1.42-2.51-.859-4.46-1.989-5.85-3.389-1.39-1.4-2.09-3.219-2.09-5.469 0-1.29.35-2.5 1.03-3.619.69-1.12 1.67-2.12 2.95-2.99 1.21-.83 2.64-1.48 4.3-1.95 1.65-.47 3.38-.709 5.17-.709 2.05 0 3.88.24 5.5.72s3.1 1.04 4.44 1.68l1.29-1.63h2.51l.25 11.278h-2.54a37.47 37.47 0 00-1.55-3.71c-.58-1.18-1.32-2.25-2.24-3.209-.9-.93-2-1.66-3.29-2.22-1.3-.55-2.88-.83-4.77-.83-1.99 0-3.68.49-5.08 1.46s-2.1 2.16-2.1 3.57c0 1.47.45 2.69 1.35 3.65.9.969 2.21 1.759 3.92 2.379 1.53.56 3.03 1.04 4.5 1.45 1.47.41 2.9.84 4.28 1.31 1.25.42 2.46.89 3.62 1.409 1.18.52 2.19 1.14 3.04 1.84zm37.64 0c.94.8 1.64 1.67 2.09 2.62.45.95.67 2.059.67 3.319 0 3-1.45 5.479-4.36 7.428-2.91 1.95-6.51 2.92-10.82 2.92-1.99 0-3.97-.24-5.96-.71-1.99-.47-3.7-1.04-5.14-1.71l-1.35 1.75h-2.51l-.44-11.638h2.54c.52 1.44 1.13 2.73 1.83 3.89.7 1.16 1.63 2.239 2.77 3.249 1.09.94 2.36 1.69 3.81 2.25 1.45.56 3.14.84 5.06.84 1.44 0 2.7-.14 3.78-.43 1.08-.29 1.95-.7 2.62-1.22.67-.53 1.17-1.15 1.49-1.86.32-.71.49-1.53.49-2.46 0-1.36-.5-2.63-1.51-3.8-1-1.169-2.5-2.069-4.48-2.669-1.36-.41-2.92-.87-4.67-1.37-1.76-.5-3.27-.97-4.55-1.42-2.51-.859-4.46-1.989-5.85-3.389-1.39-1.4-2.09-3.219-2.09-5.469 0-1.29.35-2.5 1.03-3.619.69-1.12 1.67-2.12 2.95-2.99 1.21-.83 2.64-1.48 4.3-1.95 1.65-.47 3.38-.709 5.17-.709 2.05 0 3.88.24 5.5.72s3.1 1.04 4.44 1.68L172.5.89h2.51l.25 11.278h-2.54a37.47 37.47 0 00-1.55-3.71c-.58-1.18-1.32-2.25-2.24-3.209-.9-.93-2-1.66-3.29-2.22-1.3-.55-2.88-.83-4.77-.83-1.99 0-3.68.49-5.08 1.46s-2.1 2.16-2.1 3.57c0 1.47.45 2.69 1.35 3.65.9.969 2.21 1.759 3.92 2.379 1.53.56 3.03 1.04 4.5 1.45 1.47.41 2.9.84 4.28 1.31 1.25.42 2.46.89 3.62 1.409 1.16.52 2.18 1.14 3.04 1.84zM230 2.58c-.59.02-1.48.14-2.7.38-1.21.24-2.08.49-2.6.74-.75.4-1.26 1.17-1.52 2.299-.26 1.13-.39 2.57-.39 4.31v24.885h-2.73L193.09 7.389v17.527c0 1.96.16 3.47.49 4.529.32 1.05.82 1.8 1.49 2.25.48.35 1.47.68 2.98.98 1.51.3 2.5.46 2.98.48v1.699h-18.25v-1.7c.56-.03 1.52-.19 2.85-.47 1.34-.28 2.17-.53 2.51-.75.73-.45 1.23-1.13 1.5-2.05.27-.919.41-2.489.41-4.708V8.449c0-.73-.17-1.47-.5-2.2-.33-.73-.78-1.3-1.35-1.7-.75-.53-1.77-.98-3.06-1.35-1.29-.38-2.33-.58-3.12-.61V.89h12.71l25.01 25.906V10.618c0-1.98-.17-3.5-.5-4.559-.33-1.06-.82-1.77-1.44-2.12-.59-.3-1.54-.6-2.87-.89-1.33-.29-2.34-.45-3.03-.48V.87H230v1.71zM61.98 57.85h-2.56v-.28c.07-.01.18-.01.31-.02.14-.01.23-.03.29-.05.09-.03.15-.08.19-.14a.44.44 0 00.06-.25v-4.1c0-.09-.01-.17-.04-.23s-.1-.12-.21-.16c-.08-.03-.18-.06-.3-.09s-.22-.04-.3-.049v-.28h2.56v.28c-.08 0-.18.01-.3.03-.12.02-.22.04-.3.07-.1.03-.17.08-.2.16-.03.07-.05.15-.05.24v4.1c0 .09.02.17.06.23.04.07.1.12.2.16.06.02.15.04.27.07.13.03.23.04.32.04v.269zm6.55-5.379c-.08 0-.19.02-.35.06-.16.04-.27.08-.33.12-.1.07-.16.19-.19.38s-.05.43-.05.72V57.9h-.35l-3.45-4.63v2.92c0 .33.02.58.06.75.04.17.11.3.19.38.06.06.19.11.38.16s.32.08.38.08v.28h-2.33v-.28c.07-.01.19-.03.36-.08.17-.05.28-.09.32-.13.09-.07.16-.19.19-.34.03-.15.05-.41.05-.78v-2.79c0-.12-.02-.24-.06-.37a.637.637 0 00-.17-.28c-.1-.09-.23-.16-.39-.23-.16-.06-.3-.099-.4-.099v-.28h1.63l3.2 4.32v-2.69c0-.33-.02-.58-.06-.76-.04-.18-.1-.29-.18-.35-.07-.05-.2-.1-.37-.15-.17-.05-.3-.07-.39-.08v-.28h2.31v.28zm4.01 2.779c.12.13.21.28.27.44.06.16.09.34.09.55 0 .5-.19.91-.56 1.24-.37.32-.83.49-1.38.49-.25 0-.51-.04-.76-.12-.25-.08-.47-.17-.66-.29l-.17.29h-.32l-.06-1.94h.32c.07.24.14.46.23.65s.21.37.36.54c.14.16.3.28.49.38.19.09.4.14.65.14.18 0 .35-.02.48-.07.14-.05.25-.12.33-.2.09-.09.15-.19.19-.31.04-.12.06-.26.06-.41 0-.23-.06-.44-.19-.63-.13-.2-.32-.34-.57-.45-.17-.07-.37-.14-.6-.23-.23-.09-.42-.16-.58-.24-.32-.14-.57-.33-.75-.56-.18-.23-.27-.54-.27-.91 0-.22.04-.42.13-.6.09-.19.21-.35.38-.5.15-.139.34-.249.55-.329.21-.08.43-.12.66-.12.26 0 .5.04.7.12.21.08.4.17.57.28l.16-.27h.32l.03 1.88h-.33c-.06-.22-.13-.42-.2-.62s-.17-.38-.29-.54c-.11-.15-.26-.28-.42-.37a1.28 1.28 0 00-.61-.14.95.95 0 00-.65.24c-.18.16-.27.36-.27.59 0 .24.06.45.17.61.11.16.28.29.5.4.2.09.39.17.58.24a9 9 0 01.55.22c.16.07.31.15.46.24.17.09.3.19.41.31zm6.82-2.779c-.08 0-.18.02-.33.05a.95.95 0 00-.35.13c-.09.06-.15.19-.19.38-.03.19-.05.43-.05.7v2.46c0 .31-.07.59-.2.82-.13.23-.3.42-.52.57-.21.139-.43.249-.67.309-.23.06-.46.09-.67.09-.34 0-.65-.04-.91-.13-.27-.09-.49-.21-.67-.36-.18-.15-.31-.33-.41-.52-.09-.2-.14-.4-.14-.61v-3.35c0-.09-.02-.17-.05-.23a.404.404 0 00-.19-.17.79.79 0 00-.26-.09c-.11-.02-.19-.039-.26-.039v-.28h2.37v.28c-.08 0-.17.01-.28.04-.11.02-.2.04-.25.06a.29.29 0 00-.18.16c-.03.07-.05.16-.05.24v3.13c0 .15.02.31.05.48.03.17.1.32.2.46.1.15.25.27.43.36.18.09.43.14.74.14.29 0 .54-.05.74-.14.2-.09.36-.22.47-.37.11-.14.19-.29.23-.45.05-.16.07-.32.07-.47V53.8c0-.3-.02-.54-.06-.72-.04-.19-.11-.31-.19-.37-.09-.07-.22-.12-.38-.16a1.71 1.71 0 00-.37-.06v-.28h2.33v.26zm6 5.379h-1.53c-.34-.53-.65-.99-.92-1.37-.27-.39-.57-.78-.89-1.19h-.58v1.8c0 .09.01.17.04.25.03.07.09.12.19.16.05.02.13.04.25.05.12.02.22.03.3.03v.28h-2.41v-.28c.06-.01.16-.01.28-.03.12-.01.21-.03.25-.05.08-.03.14-.09.17-.15.04-.07.05-.15.05-.26v-4.1c0-.09-.01-.18-.04-.25a.284.284 0 00-.19-.16c-.07-.02-.15-.05-.26-.07-.11-.02-.2-.03-.27-.039v-.28h2.63c.24 0 .47.02.68.07.21.05.4.13.57.24.17.11.3.25.4.42.1.17.15.38.15.62 0 .22-.03.41-.1.58-.07.17-.17.31-.3.44-.12.11-.26.21-.43.3-.17.08-.35.16-.56.21.28.37.51.68.7.93.19.25.41.56.68.92.12.16.22.28.32.35.09.08.19.14.28.19.07.03.16.06.26.08.1.02.19.03.26.03v.279h.02zm-2.11-4.22c0-.34-.1-.61-.3-.82-.2-.2-.48-.3-.84-.3h-.68v2.43h.53c.37 0 .68-.12.92-.35.25-.24.37-.56.37-.96z" fill="#fff"/><path d="M88.52 57.85v-.28c.21-.01.38-.04.52-.08s.21-.09.21-.15c0-.02 0-.05-.01-.09-.01-.03-.01-.06-.02-.09l-.47-1.27h-2c-.08.19-.14.35-.18.49-.05.14-.09.27-.13.38-.03.11-.06.21-.07.28-.01.07-.02.13-.02.18 0 .11.08.19.25.25.17.06.36.09.57.1v.28h-2.14v-.28c.07-.01.16-.02.26-.05.1-.03.19-.06.26-.1.11-.07.19-.15.25-.23.06-.08.12-.19.17-.33.29-.71.6-1.51.95-2.4.35-.89.65-1.68.92-2.369h.32l1.9 4.89c.04.1.09.19.14.25.05.06.12.13.21.19.06.04.14.07.24.09.1.03.18.04.25.04v.299h-2.38zm.08-2.32l-.86-2.2-.85 2.2h1.71z" fill="#fff"/><path d="M96.94 52.471c-.07 0-.19.02-.34.06-.16.04-.27.08-.33.12-.1.07-.16.19-.19.38s-.05.43-.05.72V57.9h-.35l-3.45-4.63v2.92c0 .33.02.58.06.75.04.18.1.3.19.38.06.06.19.11.38.16s.32.08.38.08v.28H90.9v-.28c.07-.01.19-.03.37-.08.17-.05.28-.09.32-.13.09-.07.16-.19.19-.34.03-.15.05-.41.05-.78v-2.79c0-.12-.02-.24-.06-.37a.583.583 0 00-.17-.28c-.1-.09-.23-.16-.39-.23-.16-.06-.3-.099-.4-.099v-.28h1.63l3.2 4.32v-2.69c0-.33-.02-.58-.06-.76-.04-.18-.1-.29-.18-.35-.07-.05-.2-.1-.37-.15-.17-.05-.3-.07-.39-.08v-.28h2.31v.28h-.01zm2.96 5.509c-.34 0-.67-.07-.98-.2-.31-.13-.59-.32-.83-.58-.24-.25-.43-.56-.57-.92-.14-.36-.21-.77-.21-1.22 0-.45.07-.86.21-1.23.14-.37.33-.69.58-.95.24-.26.53-.469.86-.609.33-.14.69-.22 1.06-.22.28 0 .53.03.76.1.23.07.44.17.65.29l.16-.27h.32l.04 2.02h-.33c-.04-.2-.11-.41-.19-.64-.09-.23-.19-.43-.3-.58-.13-.18-.28-.32-.46-.43-.18-.1-.38-.15-.61-.15a1.556 1.556 0 00-1.3.68c-.15.22-.28.49-.36.82-.09.33-.13.7-.13 1.11 0 .36.05.69.14 1 .09.3.22.57.39.8.17.23.37.4.61.53.23.13.5.19.78.19a1.643 1.643 0 001.07-.37c.13-.12.25-.25.35-.4.1-.15.18-.31.25-.49l.3.14c-.23.56-.53.96-.91 1.2-.37.259-.82.379-1.35.379zm7.56-1.8l-.11 1.67h-4.73v-.28c.08-.01.19-.02.32-.03.13-.02.22-.04.26-.05.09-.04.15-.09.18-.16.03-.06.05-.15.05-.24v-4.07c0-.09-.01-.17-.04-.23-.03-.07-.09-.12-.18-.17-.07-.03-.17-.06-.29-.09-.12-.03-.22-.04-.29-.049v-.28h4.4v1.37h-.3c-.05-.2-.17-.42-.35-.65-.18-.23-.35-.35-.51-.37-.08-.01-.18-.02-.3-.02-.12-.01-.25-.01-.39-.01h-.89v2.25h.64c.21 0 .36-.02.45-.06.09-.04.18-.1.25-.19.06-.08.11-.18.15-.31.04-.13.07-.25.08-.37h.3v2.22h-.3a1.69 1.69 0 00-.09-.41c-.05-.14-.1-.25-.15-.31a.587.587 0 00-.28-.2c-.11-.03-.25-.05-.42-.05h-.64v1.7c0 .17.01.3.04.4.02.1.07.17.14.22.07.05.16.08.28.1.12.01.29.02.51.02h.35c.14 0 .27-.01.36-.02.1-.01.21-.03.32-.06.11-.03.19-.07.23-.11.12-.13.25-.32.39-.58.14-.26.22-.45.26-.57h.3v-.01zm6.92-2.6c0 .3-.06.56-.17.78-.12.23-.28.42-.48.56-.2.15-.43.26-.67.33-.24.07-.5.1-.77.1h-.64v1.72c0 .09.02.17.05.25.03.07.09.12.19.16.05.02.13.04.25.05.12.02.23.03.33.03v.28h-2.44v-.28c.06-.01.16-.01.28-.03.12-.01.21-.03.25-.05.08-.03.14-.09.17-.15.04-.07.05-.15.05-.26v-4.08c0-.09-.01-.18-.04-.25a.324.324 0 00-.19-.17c-.1-.03-.2-.06-.3-.07-.1-.01-.19-.02-.26-.029v-.28h2.6c.53 0 .96.13 1.29.38.33.25.5.59.5 1.01zm-1.22.97c.09-.13.15-.26.18-.4s.04-.26.04-.37c0-.15-.02-.31-.05-.46-.03-.15-.1-.29-.19-.41a.89.89 0 00-.37-.29c-.15-.07-.34-.1-.57-.1h-.57v2.5h.41c.29 0 .52-.04.7-.13.19-.1.33-.21.42-.34zm7.42 3.3h-1.53c-.34-.53-.65-.99-.92-1.37-.27-.39-.57-.78-.89-1.19h-.58v1.8c0 .09.01.17.04.25.03.07.09.12.19.16.05.02.13.04.25.05.12.02.22.03.3.03v.28h-2.41v-.28c.06-.01.16-.01.28-.03.12-.01.21-.03.25-.05.08-.03.14-.09.17-.15.04-.07.05-.15.05-.26v-4.1c0-.09-.01-.18-.04-.25a.284.284 0 00-.19-.16c-.07-.02-.15-.05-.26-.07-.11-.02-.2-.03-.27-.039v-.28h2.63c.24 0 .47.02.68.07.21.05.4.13.57.24.17.11.3.25.4.42.1.17.15.38.15.62 0 .22-.03.41-.1.58-.07.17-.17.31-.3.44-.12.11-.26.21-.43.3-.17.08-.35.16-.56.21.28.37.51.68.7.93.19.25.41.56.68.92.12.16.22.28.32.35.09.08.19.14.28.19.07.03.16.06.26.08.1.02.19.03.26.03v.279h.02zm-2.11-4.22c0-.34-.1-.61-.3-.82-.2-.2-.48-.3-.84-.3h-.68v2.43h.53c.37 0 .68-.12.92-.35.24-.24.37-.56.37-.96zm6.93-.78c.25.26.45.58.59.94.14.37.21.78.21 1.22 0 .45-.07.86-.22 1.23-.14.37-.34.68-.6.94-.25.26-.54.45-.87.59-.33.14-.68.21-1.05.21-.4 0-.76-.07-1.1-.22-.34-.15-.62-.35-.86-.62a2.85 2.85 0 01-.57-.94c-.14-.37-.21-.76-.21-1.18 0-.46.07-.87.22-1.23.14-.36.34-.67.6-.94.25-.26.54-.459.88-.599.33-.14.68-.21 1.05-.21.38 0 .73.07 1.07.21.32.15.61.35.86.6zm-.6 4.02c.15-.24.26-.52.33-.82.07-.31.1-.65.1-1.03 0-.39-.04-.75-.11-1.07-.08-.32-.19-.6-.33-.83-.15-.23-.33-.4-.55-.53a1.48 1.48 0 00-.76-.189c-.32 0-.59.07-.82.22-.22.15-.41.34-.55.59-.13.23-.23.51-.3.82-.07.31-.1.64-.1.99 0 .38.03.73.1 1.04.07.31.18.58.33.82.14.23.33.42.55.55.22.13.48.2.79.2.29 0 .54-.07.77-.2.22-.13.4-.32.55-.56zm6.23-3.27c-.06-.21-.17-.43-.35-.67-.18-.24-.35-.37-.51-.4-.08-.01-.18-.02-.29-.02-.11-.01-.24-.01-.39-.01h-.95v2.28h.66c.2 0 .35-.02.46-.06.11-.04.2-.1.28-.19.05-.06.1-.15.15-.27.04-.12.07-.26.09-.4h.3v2.23h-.3a2.35 2.35 0 00-.08-.4c-.05-.15-.1-.26-.15-.32a.554.554 0 00-.3-.2 1.44 1.44 0 00-.44-.05h-.66v1.95c0 .09.02.17.05.24.03.07.1.12.18.17.04.02.13.04.26.07.13.03.24.04.3.04v.28h-2.47v-.28c.08-.01.19-.01.32-.03.13-.01.22-.03.26-.05.08-.03.14-.09.17-.15.04-.07.05-.15.05-.25v-4.09c0-.09-.01-.17-.04-.23-.03-.07-.09-.12-.18-.17-.07-.03-.17-.06-.29-.09-.12-.03-.22-.04-.29-.049v-.28h4.47v1.4h-.31zm5.59 2.58l-.11 1.67h-4.73v-.28c.08-.01.19-.02.32-.03.13-.02.22-.04.26-.05.09-.04.15-.09.18-.16s.05-.15.05-.24v-4.07c0-.09-.01-.17-.04-.23-.03-.07-.09-.12-.18-.17-.07-.03-.17-.06-.29-.09-.12-.03-.22-.04-.29-.049v-.28h4.4v1.37h-.3c-.05-.2-.17-.42-.35-.65-.18-.23-.35-.35-.51-.37-.08-.01-.18-.02-.3-.02-.12-.01-.25-.01-.39-.01h-.89v2.25h.64c.21 0 .36-.02.45-.06.09-.04.18-.1.25-.19.06-.08.11-.18.15-.31.04-.13.07-.25.08-.37h.3v2.22h-.3a1.69 1.69 0 00-.09-.41c-.05-.14-.1-.25-.15-.31a.587.587 0 00-.28-.2c-.11-.03-.25-.05-.42-.05h-.64v1.7c0 .17.01.3.04.4.02.1.07.17.14.22.07.05.16.08.28.1.12.01.29.02.51.02h.35c.15 0 .27-.01.36-.02.1-.01.21-.03.32-.06.11-.03.19-.07.23-.11.12-.13.25-.32.39-.58.14-.26.22-.45.26-.57h.3v-.01zm4.12-.93c.12.13.21.28.27.44.06.16.09.34.09.55 0 .5-.19.91-.56 1.24-.37.32-.83.49-1.38.49-.25 0-.51-.04-.76-.12-.25-.08-.47-.17-.66-.29l-.17.29h-.32l-.06-1.94h.33c.07.24.14.46.23.65s.21.37.36.54c.14.16.3.28.49.38.19.09.4.14.65.14.18 0 .35-.02.48-.07.14-.05.25-.12.33-.2a.81.81 0 00.19-.31c.04-.12.06-.26.06-.41 0-.23-.06-.44-.19-.63-.13-.2-.32-.34-.57-.45-.17-.07-.37-.14-.6-.23-.22-.08-.42-.16-.58-.24-.32-.14-.57-.33-.75-.56-.18-.23-.27-.54-.27-.91 0-.22.04-.42.13-.6.09-.19.21-.35.38-.5a1.838 1.838 0 011.21-.45c.26.001.5.041.7.121.21.08.4.17.57.28l.16-.27h.32l.03 1.88h-.32c-.06-.22-.13-.42-.2-.62s-.17-.38-.29-.54c-.12-.15-.26-.28-.42-.37a1.28 1.28 0 00-.61-.14.95.95 0 00-.65.24c-.18.16-.27.36-.27.59 0 .24.06.45.17.61.11.16.28.29.5.4.2.09.39.17.58.24a9 9 0 01.55.22c.16.07.32.15.46.24.16.09.29.19.39.31zm4.61 0c.12.13.21.28.27.44.06.16.09.34.09.55 0 .5-.19.91-.56 1.24-.37.32-.83.49-1.38.49-.25 0-.51-.04-.76-.12-.25-.08-.47-.17-.66-.29l-.17.29h-.32l-.06-1.94h.33c.07.24.14.46.23.65s.21.37.36.54c.14.16.3.28.49.38.19.09.4.14.65.14.18 0 .35-.02.48-.07.14-.05.25-.12.33-.2a.81.81 0 00.19-.31c.04-.12.06-.26.06-.41 0-.23-.06-.44-.19-.63-.13-.2-.32-.34-.57-.45-.17-.07-.37-.14-.6-.23-.22-.08-.42-.16-.58-.24-.32-.14-.57-.33-.75-.56-.18-.23-.27-.54-.27-.91 0-.22.04-.42.13-.6.09-.19.21-.35.38-.5a1.838 1.838 0 011.21-.45c.26.001.5.041.7.121.21.08.4.17.57.28l.16-.27h.32l.03 1.88h-.32c-.06-.22-.13-.42-.2-.62s-.17-.38-.29-.54c-.12-.15-.26-.28-.42-.37a1.28 1.28 0 00-.61-.14.95.95 0 00-.65.24c-.18.16-.27.36-.27.59 0 .24.06.45.17.61.11.16.28.29.5.4.2.09.39.17.58.24a9 9 0 01.55.22c.16.07.32.15.46.24.16.09.28.19.39.31zm3.56 2.6h-2.56v-.28c.07-.01.18-.01.31-.02.14-.01.23-.03.29-.05.09-.03.15-.08.19-.14a.44.44 0 00.06-.25v-4.1c0-.09-.01-.17-.04-.23s-.1-.12-.21-.16c-.08-.03-.18-.06-.3-.09s-.22-.04-.3-.049v-.28h2.56v.28c-.08 0-.18.01-.3.03-.11.02-.22.04-.3.07-.1.03-.17.08-.2.16-.03.07-.05.15-.05.24v4.1c0 .09.02.17.06.23.04.07.11.12.2.16.06.02.15.04.27.07.13.03.23.04.32.04v.269zm5.31-5c.25.26.45.58.59.94.14.37.21.78.21 1.22 0 .45-.07.86-.22 1.23-.14.37-.34.68-.6.94-.25.26-.54.45-.87.59-.33.14-.68.21-1.05.21-.4 0-.76-.07-1.1-.22-.34-.15-.62-.35-.86-.62a2.85 2.85 0 01-.57-.94c-.14-.37-.21-.76-.21-1.18 0-.46.07-.87.22-1.23.14-.36.34-.67.6-.94.25-.26.54-.459.88-.599.33-.14.68-.21 1.05-.21.38 0 .73.07 1.07.21.33.15.62.35.86.6zm-.6 4.02c.15-.24.26-.52.33-.82.07-.31.1-.65.1-1.03 0-.39-.04-.75-.11-1.07-.08-.32-.19-.6-.33-.83-.15-.23-.33-.4-.55-.53a1.48 1.48 0 00-.76-.189c-.32 0-.59.07-.82.22-.22.15-.41.34-.55.59-.13.23-.23.51-.3.82-.07.31-.1.64-.1.99 0 .38.03.73.1 1.04.07.31.18.58.33.82.14.23.33.42.55.55.22.13.48.2.79.2.29 0 .54-.07.77-.2.22-.13.41-.32.55-.56zm7.96-4.399c-.07 0-.19.02-.34.06-.16.04-.27.08-.33.12-.1.07-.16.19-.19.38s-.05.43-.05.72V57.9h-.35l-3.45-4.63v2.92c0 .33.02.58.06.75.04.18.1.3.19.38.06.06.19.11.38.16s.32.08.38.08v.28h-2.34v-.28c.07-.01.19-.03.37-.08.17-.05.28-.09.32-.13.09-.07.16-.19.19-.34.03-.15.05-.41.05-.78v-2.79c0-.12-.02-.24-.06-.37a.637.637 0 00-.17-.28c-.1-.09-.23-.16-.39-.23-.16-.06-.3-.099-.4-.099v-.28h1.63l3.2 4.32v-2.69c0-.33-.02-.58-.06-.76-.04-.18-.1-.29-.18-.35-.07-.05-.2-.1-.37-.15-.17-.05-.3-.07-.39-.08v-.28h2.31v.28h-.01zm3.4 5.379v-.28c.21-.01.38-.04.52-.08s.21-.09.21-.15c0-.02 0-.05-.01-.09-.01-.03-.01-.06-.02-.09l-.47-1.27h-2c-.08.19-.14.35-.18.49-.05.14-.09.27-.13.38-.03.11-.06.21-.07.28-.01.07-.02.13-.02.18 0 .11.08.19.25.25.17.06.36.09.57.1v.28h-2.14v-.28c.07-.01.16-.02.26-.05.1-.03.19-.06.26-.1.11-.07.19-.15.25-.23.06-.08.12-.19.17-.33.29-.71.6-1.51.95-2.4.35-.89.65-1.68.92-2.369h.32l1.9 4.89c.04.1.09.19.14.25.05.06.12.13.21.19.06.04.14.07.24.09.1.03.18.04.25.04v.299h-2.38zm.08-2.32l-.86-2.2-.85 2.2h1.71zm7.06.63l-.12 1.69h-4.45v-.28c.06-.01.16-.01.28-.03.12-.01.21-.03.25-.05.08-.03.14-.09.17-.15.04-.07.05-.15.05-.26v-4.06c0-.09-.02-.17-.05-.24-.03-.07-.09-.12-.18-.17a1.52 1.52 0 00-.26-.09 1.11 1.11 0 00-.27-.049v-.28h2.4v.28c-.08 0-.17.02-.29.04-.12.02-.21.05-.26.06-.09.03-.15.09-.19.16-.03.08-.05.16-.05.25v3.8c0 .18.01.31.03.41.02.1.06.17.12.23.06.05.15.08.27.09.12.01.29.02.51.02.1 0 .2 0 .31-.01l.3-.03c.09-.02.18-.04.26-.07.08-.03.14-.06.17-.11.11-.12.24-.31.38-.56.15-.25.25-.45.3-.6h.32v.01zm5.31 1.69v-.28c.21-.01.38-.04.52-.08s.21-.09.21-.15c0-.02 0-.05-.01-.09-.01-.03-.01-.06-.02-.09l-.47-1.27h-2c-.08.19-.14.35-.18.49-.05.14-.09.27-.13.38-.03.11-.06.21-.07.28-.01.07-.02.13-.02.18 0 .11.08.19.25.25.17.06.36.09.57.1v.28h-2.14v-.28c.07-.01.16-.02.26-.05.1-.03.19-.06.26-.1.11-.07.19-.15.25-.23.06-.08.12-.19.17-.33.29-.71.6-1.51.95-2.4.35-.89.65-1.68.92-2.369h.32l1.9 4.89c.04.1.09.19.14.25.05.06.12.13.21.19.06.04.14.07.24.09.1.02.18.04.25.04v.299h-2.38zm.08-2.32l-.86-2.2-.85 2.2h1.71zm6.04-.28c.12.13.21.28.27.44.06.16.09.34.09.55 0 .5-.19.91-.56 1.24-.37.32-.83.49-1.38.49-.25 0-.51-.04-.76-.12-.25-.08-.47-.17-.66-.29l-.17.29h-.32l-.06-1.94h.33c.07.24.14.46.23.65s.21.37.36.54c.14.16.3.28.49.38.19.09.4.14.65.14.18 0 .35-.02.48-.07a.97.97 0 00.33-.2c.09-.09.15-.19.19-.31.04-.12.06-.26.06-.41 0-.23-.06-.44-.19-.63-.13-.2-.32-.34-.57-.45-.17-.07-.37-.14-.6-.23-.22-.08-.42-.16-.58-.24-.32-.14-.57-.33-.75-.56-.18-.23-.27-.54-.27-.91 0-.22.04-.42.13-.6.09-.19.21-.35.38-.5a1.838 1.838 0 011.21-.45c.26.001.5.041.7.121.21.08.4.17.57.28l.16-.27h.32l.03 1.88h-.32c-.06-.22-.13-.42-.2-.62s-.17-.38-.29-.54c-.12-.15-.26-.28-.42-.37a1.28 1.28 0 00-.61-.14.95.95 0 00-.65.24c-.18.16-.27.36-.27.59 0 .24.06.45.17.61.11.16.28.29.5.4.2.09.39.17.58.24a9 9 0 01.55.22c.16.07.32.15.46.24.15.09.28.19.39.31zm4.61 0c.12.13.21.28.27.44.06.16.09.34.09.55 0 .5-.19.91-.56 1.24-.37.32-.83.49-1.38.49-.25 0-.51-.04-.76-.12-.25-.08-.47-.17-.66-.29l-.17.29h-.32l-.06-1.94h.33c.07.24.14.46.23.65s.21.37.36.54c.14.16.3.28.49.38.19.09.4.14.65.14.18 0 .35-.02.48-.07a.97.97 0 00.33-.2c.09-.09.15-.19.19-.31.04-.12.06-.26.06-.41 0-.23-.06-.44-.19-.63-.13-.2-.32-.34-.57-.45-.17-.07-.37-.14-.6-.23-.22-.08-.42-.16-.58-.24-.32-.14-.57-.33-.75-.56-.18-.23-.27-.54-.27-.91 0-.22.04-.42.13-.6.09-.19.21-.35.38-.5a1.838 1.838 0 011.21-.45c.26.001.5.041.7.121.21.08.4.17.57.28l.16-.27h.32l.03 1.88h-.32c-.06-.22-.13-.42-.2-.62s-.17-.38-.29-.54c-.12-.15-.26-.28-.42-.37a1.28 1.28 0 00-.61-.14.95.95 0 00-.65.24c-.18.16-.27.36-.27.59 0 .24.06.45.17.61.11.16.28.29.5.4.2.09.39.17.58.24a9 9 0 01.55.22c.16.07.32.15.46.24.15.09.28.19.39.31zm5.66-2.4c.25.26.45.58.59.94.14.37.21.78.21 1.22 0 .45-.07.86-.22 1.23-.14.37-.34.68-.6.94-.25.26-.54.45-.87.59-.33.14-.68.21-1.05.21-.4 0-.76-.07-1.1-.22-.34-.15-.62-.35-.86-.62a2.85 2.85 0 01-.57-.94c-.14-.37-.21-.76-.21-1.18 0-.46.07-.87.22-1.23.14-.36.34-.67.6-.94.25-.26.54-.459.88-.599.33-.14.68-.21 1.05-.21.38 0 .73.07 1.07.21.33.15.62.35.86.6zm-.6 4.02c.15-.24.26-.52.33-.82.07-.31.1-.65.1-1.03 0-.39-.04-.75-.11-1.07-.08-.32-.19-.6-.33-.83-.15-.23-.33-.4-.55-.53a1.48 1.48 0 00-.76-.189c-.32 0-.59.07-.82.22-.22.15-.41.34-.55.59-.13.23-.23.51-.3.82-.07.31-.1.64-.1.99 0 .38.03.73.1 1.04.07.31.18.58.33.82.14.23.33.42.55.55.22.13.48.2.79.2.29 0 .54-.07.77-.2.22-.13.41-.32.55-.56zm4.62 1.11c-.34 0-.67-.07-.98-.2-.31-.13-.59-.32-.83-.58-.24-.25-.43-.56-.57-.92-.14-.36-.21-.77-.21-1.22 0-.45.07-.86.21-1.23.14-.37.33-.69.58-.95.24-.26.53-.469.86-.609.33-.14.69-.22 1.06-.22.28 0 .53.03.76.1.23.07.44.17.65.29l.16-.27h.32l.04 2.02h-.33c-.04-.2-.11-.41-.19-.64-.09-.23-.19-.43-.3-.58-.13-.18-.28-.32-.46-.43-.18-.1-.38-.15-.61-.15a1.556 1.556 0 00-1.3.68c-.15.22-.28.49-.36.82-.08.33-.13.7-.13 1.11 0 .36.05.69.14 1 .09.3.22.57.39.8.17.23.37.4.61.53.23.13.5.19.78.19a1.643 1.643 0 001.07-.37c.13-.12.25-.25.35-.4.1-.15.18-.31.25-.49l.3.14c-.23.56-.53.96-.91 1.2-.37.259-.82.379-1.35.379zm5.26-.13h-2.56v-.28c.07-.01.18-.01.31-.02.14-.01.23-.03.29-.05.09-.03.15-.08.19-.14a.44.44 0 00.06-.25v-4.1c0-.09-.01-.17-.04-.23s-.1-.12-.21-.16c-.08-.03-.18-.06-.3-.09s-.22-.04-.3-.049v-.28h2.56v.28c-.08 0-.18.01-.3.03-.11.02-.22.04-.3.07-.1.03-.17.08-.2.16-.03.07-.05.15-.05.24v4.1c0 .09.02.17.06.23.04.07.11.12.2.16.06.02.15.04.27.07.13.03.23.04.32.04v.269zm3.65 0v-.28c.21-.01.38-.04.52-.08s.21-.09.21-.15c0-.02 0-.05-.01-.09-.01-.03-.01-.06-.02-.09l-.47-1.27h-2c-.08.19-.14.35-.18.49-.05.14-.09.27-.13.38-.03.11-.06.21-.07.28-.01.07-.02.13-.02.18 0 .11.08.19.25.25.17.06.36.09.57.1v.28h-2.14v-.28c.07-.01.16-.02.26-.05.1-.03.19-.06.26-.1.11-.07.19-.15.25-.23.06-.08.12-.19.17-.33.29-.71.6-1.51.95-2.4.35-.89.65-1.68.92-2.369h.32l1.9 4.89c.04.1.09.19.14.25.05.06.12.13.21.19.06.04.14.07.24.09.1.02.18.04.25.04v.299h-2.38zm.08-2.32l-.86-2.2-.85 2.2h1.71zm6.85-1.81c-.02-.1-.07-.21-.13-.34-.06-.13-.13-.26-.21-.37-.08-.12-.17-.23-.26-.32a.578.578 0 00-.28-.16c-.08-.01-.19-.02-.31-.02-.13-.01-.24-.01-.35-.01h-.23v4.53c0 .09.02.17.06.24.04.07.1.13.2.17.05.02.15.04.3.08.15.03.27.05.36.05v.28h-2.69v-.28c.08-.01.19-.02.34-.03.15-.02.26-.04.32-.06.09-.03.15-.08.19-.15.04-.06.06-.15.06-.26v-4.58h-.23c-.08 0-.19 0-.31.01-.12 0-.24.01-.35.03-.09.01-.18.06-.27.16-.1.09-.18.2-.26.32-.08.12-.15.25-.21.38s-.1.25-.13.33h-.28v-1.539h4.96v1.54h-.29zm3.22 4.13h-2.56v-.28c.07-.01.18-.01.31-.02.14-.01.23-.03.29-.05.09-.03.15-.08.19-.14a.44.44 0 00.06-.25v-4.1c0-.09-.01-.17-.04-.23s-.1-.12-.21-.16c-.08-.03-.18-.06-.3-.09s-.22-.04-.3-.049v-.28h2.56v.28c-.08 0-.18.01-.3.03-.11.02-.22.04-.3.07-.1.03-.17.08-.2.16-.03.07-.05.15-.05.24v4.1c0 .09.02.17.06.23.04.07.11.12.2.16.06.02.15.04.27.07.13.03.23.04.32.04v.269zm5.31-5c.25.26.45.58.59.94.14.37.21.78.21 1.22 0 .45-.07.86-.22 1.23-.14.37-.34.68-.6.94-.25.26-.54.45-.87.59-.33.14-.68.21-1.05.21-.4 0-.76-.07-1.1-.22-.34-.15-.62-.35-.86-.62a2.85 2.85 0 01-.57-.94c-.14-.37-.21-.76-.21-1.18 0-.46.07-.87.22-1.23.14-.36.34-.67.6-.94.25-.26.54-.459.88-.599.33-.14.68-.21 1.05-.21.38 0 .73.07 1.07.21.33.15.61.35.86.6zm-.6 4.02c.15-.24.26-.52.33-.82.07-.31.1-.65.1-1.03 0-.39-.04-.75-.11-1.07-.08-.32-.19-.6-.33-.83-.15-.23-.33-.4-.55-.53a1.48 1.48 0 00-.76-.189c-.32 0-.59.07-.82.22-.22.15-.41.34-.55.59-.13.23-.23.51-.3.82-.07.31-.1.64-.1.99 0 .38.03.73.1 1.04.07.31.18.58.33.82.14.23.33.42.55.55.22.13.48.2.79.2.29 0 .54-.07.77-.2.22-.13.41-.32.55-.56zm7.96-4.399c-.07 0-.19.02-.34.06-.16.04-.27.08-.33.12-.1.07-.16.19-.19.38s-.05.43-.05.72V57.9h-.35l-3.45-4.63v2.92c0 .33.02.58.06.75.04.18.1.3.19.38.06.06.19.11.38.16s.32.08.38.08v.28h-2.34v-.28c.07-.01.19-.03.37-.08.17-.05.28-.09.32-.13.09-.07.16-.19.19-.34.03-.15.05-.41.05-.78v-2.79c0-.12-.02-.24-.06-.37a.637.637 0 00-.17-.28c-.1-.09-.23-.16-.39-.23-.16-.06-.3-.099-.4-.099v-.28h1.63l3.2 4.32v-2.69c0-.33-.02-.58-.06-.76-.04-.18-.1-.29-.18-.35-.07-.05-.2-.1-.37-.15-.17-.05-.3-.07-.39-.08v-.28h2.31v.28h-.01zM27.29 2.01V.03h-13.5v1.98l3.38.14c1.42.19 2.48 1.38 2.48 2.8v30.714c0 .72-.83 1.14-1.42.71l-1.55-1.14v2.38l10.41 8.508v-3.26l-.87-.64a5.792 5.792 0 01-2.38-4.678V4.968c0-1.43 1.07-2.63 2.5-2.8l.95-.16z" fill="#fff"/><path d="M48.26 0v4.25h2.75v25.745c0 3.24-.91 6.339-2.62 8.988l-.17.26c-.54.8-2.17 3.25-9.57 8.309-2.92 2-5.98 3.89-9.12 5.629-3.14-1.74-6.2-3.63-9.12-5.63-7.4-5.058-9.03-7.508-9.57-8.308l-.17-.26c-1.71-2.65-2.62-5.759-2.62-8.988V4.249h2.75V0H0l3.75 5.769v24.226c0 4.05 1.14 7.948 3.3 11.288.07.1.14.21.21.31 1.22 1.83 3.55 4.559 10.71 9.458 3.32 2.27 6.81 4.4 10.39 6.35l1.18.599.97-.49.2-.1c3.58-1.94 7.07-4.08 10.39-6.349 7.16-4.899 9.48-7.629 10.71-9.458.07-.1.14-.21.21-.31 2.16-3.33 3.3-7.239 3.3-11.288V5.849L59.04 0H48.26z" fill="#fff"/><path d="M45.32 1.17C44.22-.09 42.49.01 42.26.03H29.24v1.94h.47c1.37 0 2.48 1.1 2.48 2.46v35.463c0 1.21-.6 2.34-1.6 3.02l-.69.47v2.799l9.48-6.829v-2.36l-1.16.71c-.78.53-1.83-.02-1.83-.95V21.297c1.14-.35 2.31-.73 3.51-1.15 1.31-.46 2.56-.93 3.76-1.41.37-.21 1.17-.73 1.75-1.729.55-.95.62-1.85.62-2.27V2.59c-.08-.36-.26-.91-.71-1.42zm-3.48 14.197c0 .22-.14.42-.36.49-1.27.41-4.29 1.2-5.08 1.4V4.089l5.01-.32c.23-.01.43.17.43.4v11.198z" fill="#fff"/></svg>